# xmcd
#
# Track frame offsets:
# 150
# 13817
# 33182
# 52420
# 72287
# 92872
# 108525
# 127665
# 145312
# 163900
# 182357
# 207127
# 233275
# 252165
#
# Disc length: 3629 seconds
#
# Revision: 2
# Processed by: cddbd v1.5.1PL0 Copyright (c) Steve Scherf et al.
# Submitted via: plextools 2.19a
#
DISCID=bb0e2b0e
DTITLE=Golden City Factory - 東方Destiny
DYEAR=2005
DGENRE=Game
TTITLE0=DSP - 幻視の夜　〜 Ghostly Eyes 〜
TTITLE1=DSP - 蠢々秋月　〜 Mooned Insect 〜
TTITLE2=DSP - 夜雀の歌声　〜 Night Bird 〜
TTITLE3=DSP - もう歌しか聞こえない
TTITLE4=Kiyama - プレインエイジア
TTITLE5=DDSS - 永夜の報い　〜 Inperishable Night 〜
TTITLE6=DDSS - 少女綺想曲　〜 Draem Battle 〜
TTITLE7=Kiyama - 恋色マスタースパーク
TTITLE8=Guri - シンデレラケージ　〜 Kagome-Kagome 〜
TTITLE9=Guri - 狂気の瞳　〜 Invisible Full Moon 〜
TTITLE10=Guri - ヴォヤージュ1969
TTITLE11=Guri - 千年幻想郷　〜 History of the Moon 〜
TTITLE12=Golden City Factory - エクステンドアッシュ蓬莱人
TTITLE13=Golden City Factory - 月まで届け不死の煙
EXTD=YEAR: 2005
EXTT0=
EXTT1=
EXTT2=
EXTT3=
EXTT4=
EXTT5=
EXTT6=
EXTT7=
EXTT8=
EXTT9=
EXTT10=
EXTT11=
EXTT12=
EXTT13=
PLAYORDER=
